<svg version="1.1" id="Layer_1" xmlns="http://www.w3.org/2000/svg" x="0px" y="0px"
     viewBox="0 0 97 98.7" style="enable-background:new 0 0 97 98.7;" xml:space="preserve">
<style type="text/css">
	.st0{fill:#AFCB37;}
	.st1{fill:#414043;}
</style>
    <path class="st0" d="M86.2,26.8l0.3-8.4c0-3.1-1.9-4.4-5.6-5.5L50,3.2l-4.8,3.8c0,0,27,8.4,30.5,9.6s2.4,3.6,0.3,5.5
	c0,0-25.2,20.8-26.1,21.2c-1.2,0.7-2.4,0.7-3.7,0.3L19.6,36c-2.9-0.6-5.6,2.5-5.6,5.5l1.5,28.2c0,3.1,0.7,6.2,5.5,8.1
	c4.9,1.9,25.8,9.9,27.4,10.6c2,0.9,4.2,1.1,7.4-1.4l28-21.9c1-1.1,1.3-1.9,1-5.5l0.2-5L58.8,75.4v-9l26.7-21l0.3-9.2l-27,21.2v-9
	L86.2,26.8z M33.8,62.7l0.3,9.8c0,1.2-0.8,2.2-1.9,2.2c-1.1,0-2-1-2-2.2l-0.3-9.8c-2-1.1-3.5-3.8-3.6-7c-0.1-4.1,2.1-7.5,5-7.5
	s5.8,3.4,5.8,7.6C37.2,59,35.8,61.6,33.8,62.7z"/>
    <path class="st1" d="M69.2,19.3c0,0-5.3-1.7-6.8-2.2c-9.8-3.2-24.3-8.1-31.4-10.5c-1.4-0.5-5.1-0.5-7,0.7L7,19.8
	c-2.6,2-4.4,4.1-4.2,8.4C3,32.5,3.5,42.9,3.5,42.9l1,23.3l0.3,5.4c0,1.9,0.2,4.7,1.8,7.5c1,1.8,2.4,3.4,4.3,4.6
	c1.1,0.8,2.3,1.4,3.7,1.9c1.8,0.7,13.4,5.1,21.8,8.4c1,0.4,1.9,0.7,2.8,1.1c1.3,0.5,2.5,0.4,3.5,0.2c1.5-0.3,2.7-1.2,3.7-1.4
	c-0.5-0.2-3.3-1.3-6.7-2.6c-2-0.8-4.1-1.6-6.2-2.4c-5.9-2.3-12.1-4.7-14.5-5.6c-3.5-1.4-6.1-3.5-7.6-6.3c-1.5-2.7-1.7-5.3-1.7-7.2
	L8.5,49.7L8,41.8c0-0.1,0-0.2,0-0.3c0-6.3,4.9-11.6,10.8-11.6c0.6,0,1.2,0.1,1.8,0.2l17.9,5.1l6.4,1.8c0.3,0.1,0.7,0.2,1,0.2
	c0.9,0.1,1.9,0,2.6-0.4c0,0,9.3-7,16.4-12.5c0.3-0.3,4.2-3.4,4.3-3.4C70,20.4,70.2,19.6,69.2,19.3z"/>
</svg>
