<svg xmlns="http://www.w3.org/2000/svg" xmlns:xlink="http://www.w3.org/1999/xlink" viewBox="0 0 196.99 196.99"><defs><style>.a{fill:url(#a);}.b{fill:#3c3c3b;}.c{fill:#fff;}.d{fill:#afca0b;}</style><radialGradient id="a" cx="98.5" cy="98.5" r="98.5" gradientUnits="userSpaceOnUse"><stop offset="0" stop-color="#afca0b"/><stop offset="1" stop-color="#90ae00"/></radialGradient></defs><rect class="a" width="196.99" height="196.99"/><path class="b" d="M175.07,64.92c0,66.75-41,103.94-66.84,114.71a14.51,14.51,0,0,1-11.13,0C64.83,166.18,30.29,124.8,30.29,64.92a14.46,14.46,0,0,1,8.93-13.36L97.13,27.43a17.41,17.41,0,0,1,5.57-1.11,17.35,17.35,0,0,1,5.56,1.11l57.91,24.13A14.48,14.48,0,0,1,175.07,64.92Z"/><path class="c" d="M175.45,59.34c0,68.1-41.82,106-68.19,117a14.81,14.81,0,0,1-11.36,0C63,162.65,27.74,120.43,27.74,59.34a14.76,14.76,0,0,1,9.1-13.63L95.93,21.09A17.55,17.55,0,0,1,101.61,20a17.55,17.55,0,0,1,5.68,1.13l59.08,24.62A14.77,14.77,0,0,1,175.45,59.34Zm-9.88,0a4.9,4.9,0,0,0-3-4.55L103.47,30.17a4.88,4.88,0,0,0-3.79,0L40.6,54.79a4.94,4.94,0,0,0-3,4.55c0,54.16,32,96,62.14,108a5,5,0,0,0,3.78,0C133.6,155.36,165.6,113.5,165.57,59.34Z"/><path class="d" d="M165.59,59.35a4.9,4.9,0,0,0-3-4.56L103.49,30.17a4.93,4.93,0,0,0-3.79,0L40.61,54.79a5,5,0,0,0-3,4.56c0,54.16,32,96,62.13,108a5.07,5.07,0,0,0,3.79,0C133.61,155.36,165.62,113.51,165.59,59.35Z"/><path class="b" d="M90.34,116.1,62,98.79a13.6,13.6,0,0,1-2.57-2,14.29,14.29,0,0,1-4.51-10.46A14.48,14.48,0,0,1,61.92,74L100.4,50.36a15.73,15.73,0,0,1,15.46-.54,16,16,0,0,1,3.55,2.57,14.07,14.07,0,0,1,4.42,10.37,12.32,12.32,0,0,1-3.92,9.05l-6.37,6.09L109.85,74l6.37-6.12a7,7,0,0,0,2.26-5.16,9,9,0,0,0-2.82-6.54,9.8,9.8,0,0,0-2.31-1.64,10.35,10.35,0,0,0-10.18.34L64.71,78.52a9.2,9.2,0,0,0-4.48,7.84,9,9,0,0,0,2.82,6.54,8.16,8.16,0,0,0,1.63,1.24l28.42,17.4Z"/><path class="d" d="M94.85,141.73A15.86,15.86,0,0,1,87.58,140a15.53,15.53,0,0,1-3.53-2.54A14.11,14.11,0,0,1,79.6,127a12.47,12.47,0,0,1,3.92-9l8.26-7.89a9.13,9.13,0,0,0,.42-12.91l-.42-.43-8.24-7.86a12.43,12.43,0,0,1-3.91-9.08,14.38,14.38,0,0,1,8-12.86,15,15,0,0,1,15.22.45L141.51,91a17.68,17.68,0,0,1,2.57,2,14.39,14.39,0,0,1,.4,20.33,14.13,14.13,0,0,1-3,2.37L103,139.42A15.45,15.45,0,0,1,94.85,141.73Zm0-71.3a10.41,10.41,0,0,0-4.79,1.24A9.14,9.14,0,0,0,85,79.82h0A7.2,7.2,0,0,0,87.21,85l8.26,7.86a14.5,14.5,0,0,1,.58,20.49c-.19.2-.38.39-.58.57l-8.26,7.9A7.22,7.22,0,0,0,85,127a8.94,8.94,0,0,0,2.82,6.52,11.54,11.54,0,0,0,2.32,1.66,10.28,10.28,0,0,0,10.17-.37l38.49-23.59a9.15,9.15,0,0,0,4.48-7.81,8.89,8.89,0,0,0-2.82-6.54,9.91,9.91,0,0,0-1.66-1.3L100,72A9.7,9.7,0,0,0,94.85,70.43Z"/><path class="b" d="M90.34,116.1,62,98.79a13.6,13.6,0,0,1-2.57-2,14.29,14.29,0,0,1-4.51-10.46A14.48,14.48,0,0,1,61.92,74L100.4,50.36a15.73,15.73,0,0,1,15.46-.54,16,16,0,0,1,3.55,2.57,14.07,14.07,0,0,1,4.42,10.37,12.32,12.32,0,0,1-3.92,9.05l-6.37,6.09L109.85,74l6.37-6.12a7,7,0,0,0,2.26-5.16,9,9,0,0,0-2.82-6.54,9.8,9.8,0,0,0-2.31-1.64,10.35,10.35,0,0,0-10.18.34L64.71,78.52a9.2,9.2,0,0,0-4.48,7.84,9,9,0,0,0,2.82,6.54,8.16,8.16,0,0,0,1.63,1.24l28.42,17.4Z"/><path class="c" d="M94.85,141.73A15.86,15.86,0,0,1,87.58,140a15.53,15.53,0,0,1-3.53-2.54A14.11,14.11,0,0,1,79.6,127a12.47,12.47,0,0,1,3.92-9l8.26-7.89a9.13,9.13,0,0,0,.42-12.91l-.42-.43-8.24-7.86a12.43,12.43,0,0,1-3.91-9.08,14.38,14.38,0,0,1,8-12.86,15,15,0,0,1,15.22.45L141.51,91a17.68,17.68,0,0,1,2.57,2,14.39,14.39,0,0,1,.4,20.33,14.13,14.13,0,0,1-3,2.37L103,139.42A15.45,15.45,0,0,1,94.85,141.73Zm0-71.3a10.41,10.41,0,0,0-4.79,1.24A9.14,9.14,0,0,0,85,79.82h0A7.2,7.2,0,0,0,87.21,85l8.26,7.86a14.5,14.5,0,0,1,.58,20.49c-.19.2-.38.39-.58.57l-8.26,7.9A7.22,7.22,0,0,0,85,127a8.94,8.94,0,0,0,2.82,6.52,11.54,11.54,0,0,0,2.32,1.66,10.28,10.28,0,0,0,10.17-.37l38.49-23.59a9.15,9.15,0,0,0,4.48-7.81,8.89,8.89,0,0,0-2.82-6.54,9.91,9.91,0,0,0-1.66-1.3L100,72A9.7,9.7,0,0,0,94.85,70.43Z"/><circle class="c" cx="159.3" cy="42" r="22.04"/><path class="b" d="M159.21,58.34a7.87,7.87,0,0,0,3.61-14.9L163,28.63l-3.26-3-3.12,2.94V29l1.24,1.26-1.24,1.2v.26L157.84,33l-1.29,1.27v.49l1.07,1.11-1.11,1.07v.47l1.11,1.16-1.15,1.11v1.81l-1.17,1.36v.89a7.87,7.87,0,0,0,3.91,14.64Zm1.17-16.23.11-12.2a.41.41,0,0,1,.41-.41h.38a.43.43,0,0,1,.41.42l-.13,12.22a.41.41,0,0,1-.42.41h-.35a.39.39,0,0,1-.41-.4v0ZM157.2,54.23a2.06,2.06,0,1,1,2,2.07h0A2,2,0,0,1,157.2,54.23Z"/></svg>